HIERARCHY
ROOT Hips
{
  OFFSET 0.000000 0.000000 0.000000
  CHANNELS 6 Xposition Yposition Zposition Zrotation Yrotation Xrotation
  JOINT Spine
  {
    OFFSET -0.103929 2.016908 0.069201
    CHANNELS 3 Zrotation Yrotation Xrotation
    JOINT Spine1
    {
      OFFSET 0.040925 2.013020 -0.052834
      CHANNELS 3 Zrotation Yrotation Xrotation
      JOINT Spine2
      {
        OFFSET 0.091899 2.026089 -0.082763
        CHANNELS 3 Zrotation Yrotation Xrotation
        JOINT Neck
        {
          OFFSET -0.028700 1.589775 -0.031135
          CHANNELS 3 Zrotation Yrotation Xrotation
          JOINT Head
          {
            OFFSET 0.040559 1.599987 -0.095354
            CHANNELS 3 Zrotation Yrotation Xrotation
            End Site
            {
              OFFSET 0 0 0
            }
          }
        }
        JOINT LeftShoulder
        {
          OFFSET 3.306406 1.157636 0.011041
          CHANNELS 3 Zrotation Yrotation Xrotation
          JOINT LeftArm
          {
            OFFSET 4.632080 -0.000000 0.000000
            CHANNELS 3 Zrotation Yrotation Xrotation
            JOINT LeftForeArm
            {
              OFFSET 3.419240 -0.000000 -0.000000
              CHANNELS 3 Zrotation Yrotation Xrotation
              JOINT LeftHand
              {
                OFFSET 0.625370 -0.000000 -0.000000
                CHANNELS 3 Zrotation Yrotation Xrotation
                JOINT LeftHandIndex1
                {
                  OFFSET 0.504190 -0.000000 -0.000000
                  CHANNELS 3 Zrotation Yrotation Xrotation
                  End Site
                  {
                    OFFSET 0 0 0
                  }
                }
              }
            }
          }
        }
        JOINT RightShoulder
        {
          OFFSET -3.780807 1.021795 -0.166087
          CHANNELS 3 Zrotation Yrotation Xrotation
          JOINT RightArm
          {
            OFFSET -4.406400 -0.000000 -0.000000
            CHANNELS 3 Zrotation Yrotation Xrotation
            JOINT RightForeArm
            {
              OFFSET -3.446750 -0.000000 0.000000
              CHANNELS 3 Zrotation Yrotation Xrotation
              JOINT RightHand
              {
                OFFSET -0.513674 -0.000000 -0.000000
                CHANNELS 3 Zrotation Yrotation Xrotation
                JOINT RightHandIndex1
                {
                  OFFSET -0.414137 -0.000000 -0.000000
                  CHANNELS 3 Zrotation Yrotation Xrotation
                  End Site
                  {
                    OFFSET 0 0 0
                  }
                }
              }
            }
          }
        }
      }
    }
  }
  JOINT LeftUpLeg
  {
    OFFSET 2.201029 -6.047282 0.000000
    CHANNELS 3 Zrotation Yrotation Xrotation
    JOINT LeftLeg
    {
      OFFSET 2.541540 -6.982830 0.000000
      CHANNELS 3 Zrotation Yrotation Xrotation
      JOINT LeftFoot
      {
        OFFSET 0.059715 -0.164065 1.775819
        CHANNELS 3 Zrotation Yrotation Xrotation
        JOINT LeftToeBase
        {
          OFFSET 0.000000 -0.000000 0.908320
          CHANNELS 3 Zrotation Yrotation Xrotation
          End Site
          {
            OFFSET 0 0 0
          }
        }
      }
    }
  }
  JOINT RightUpLeg
  {
    OFFSET -2.269262 -6.234750 0.000000
    CHANNELS 3 Zrotation Yrotation Xrotation
    JOINT RightLeg
    {
      OFFSET -2.348077 -6.451293 0.000000
      CHANNELS 3 Zrotation Yrotation Xrotation
      JOINT RightFoot
      {
        OFFSET -0.186335 -0.511953 1.685391
        CHANNELS 3 Zrotation Yrotation Xrotation
        JOINT RightToeBase
        {
          OFFSET -0.000000 -0.000000 0.889273
          CHANNELS 3 Zrotation Yrotation Xrotation
          End Site
          {
            OFFSET 0 0 0
          }
        }
      }
    }
  }
}
MOTION
Frames: 12
Frame Time: 0.00833333
8.490020 15.651400 11.767800 178.367000 6.991320 -174.038000 -25.171200 -0.009949 -36.843600 0.000000 0.000000 40.732700 3.325990 0.000000 -12.324200 0.000000 0.000000 -52.772700 1.611040 10.819600 -3.250910 0.000000 0.000000 71.277000 16.190200 0.000000 201.513000 0.000000 0.000000 -37.797000 -7.136480 3.581190 -2.231290 2.383320 5.224260 4.637010 6.825990 2.305860 5.258810 -2.466100 -2.180250 -4.442480 1.401770 -3.120150 7.923830 0.000000 0.000000 0.000000 59.781100 -21.234500 -55.397000 0.000000 0.000000 31.404500 -20.870000 0.000000 -33.738100 0.000000 0.000000 7.125020 0.000000 0.000000 0.000000 -59.005400 3.935570 -21.785200 0.000000 0.000000 42.487400 -43.919300 0.000000 -17.923800 0.000000 0.000000 7.125020
8.388030 15.678800 11.659300 177.300000 6.679870 -174.605000 -26.939700 -0.019753 -35.253000 0.000000 0.000000 39.621900 2.412830 0.000000 -12.440100 0.000000 0.000000 -51.907300 -0.625656 11.772900 -11.906800 0.000000 0.000000 67.246400 13.051500 0.000000 203.918000 0.000000 0.000000 -36.235000 -7.174920 2.905910 -1.235780 2.075510 4.329870 5.124360 6.441300 1.868250 5.380760 -2.437110 -1.832730 -3.836430 1.384000 -2.909330 7.680040 -0.000000 -0.000000 0.000000 60.205400 -17.660000 -52.233600 0.000000 0.000000 31.186300 -24.476700 0.000000 -34.268400 0.000000 0.000000 7.125020 -0.000000 -0.000000 0.000000 -59.202700 1.381270 -25.112900 0.000000 0.000000 41.341000 -46.797600 0.000000 -18.583400 0.000000 0.000000 7.125020
8.303960 15.711400 11.593300 176.505000 6.743390 -175.496000 -28.267400 0.470257 -33.470100 0.000000 0.000000 38.568600 2.009850 0.000000 -12.393300 0.000000 0.000000 -51.946700 -2.423950 11.750900 -21.613700 0.000000 0.000000 65.770200 10.212500 0.000000 203.472000 0.000000 0.000000 -32.721200 -7.173720 2.298470 0.508116 1.831930 3.505930 5.716340 6.079330 1.496160 5.166440 -2.586230 -1.431010 -3.274880 1.408570 -2.614550 7.352150 0.000000 0.000000 0.000000 60.546100 -13.682800 -48.761200 0.000000 0.000000 31.254200 -23.789400 0.000000 -34.372000 0.000000 0.000000 7.125020 0.000000 0.000000 0.000000 -59.259700 -1.181200 -28.237400 0.000000 0.000000 40.041100 -46.119600 0.000000 -18.060200 0.000000 0.000000 7.125020
8.245350 15.735800 11.558800 175.719000 6.403380 -176.747000 -29.467500 0.565582 -31.565400 0.000000 0.000000 37.789200 1.888900 0.000000 -12.212400 0.000000 0.000000 -52.826100 -3.381530 10.713200 -31.286400 0.000000 0.000000 67.593000 10.202100 0.000000 199.758000 0.000000 0.000000 -13.668800 -7.494470 1.541370 2.828790 1.620000 2.496490 6.463360 5.945990 1.039340 4.809690 -2.559500 -2.926520 -2.677390 1.376950 -0.764538 6.930200 -0.000000 -0.000000 0.000000 61.257500 -10.108600 -45.362800 0.000000 0.000000 31.794500 -23.927300 0.000000 -35.325300 0.000000 0.000000 7.125020 -0.000000 -0.000000 0.000000 -59.436800 -2.968030 -31.508200 0.000000 0.000000 39.218400 -46.087900 0.000000 -17.840200 0.000000 0.000000 7.125020
8.216070 15.750100 11.537300 174.758000 5.746250 -178.431000 -30.787200 0.355019 -29.374100 0.000000 0.000000 37.204200 1.808490 0.000000 -11.960500 0.000000 0.000000 -53.198000 -3.527510 8.593010 -40.263000 0.000000 0.000000 72.496200 17.504200 0.000000 199.260000 0.000000 0.000000 47.596400 -8.424170 0.753122 5.517260 1.398390 1.475740 7.431650 6.198100 0.568502 4.509530 -2.564840 -2.303750 -2.163460 1.294930 -0.480414 6.441520 -0.000000 -0.000000 0.000000 62.280200 -7.067020 -41.911000 0.000000 0.000000 32.971700 -24.656900 0.000000 -36.736000 0.000000 0.000000 7.125020 -0.000000 -0.000000 0.000000 -59.505400 -4.340630 -35.121400 0.000000 0.000000 38.863500 -45.880400 0.000000 -16.279800 0.000000 0.000000 7.125020
8.212870 15.756600 11.520100 173.711000 4.811530 -180.219000 -32.172300 -0.191748 -27.129800 0.000000 0.000000 36.752800 1.783360 0.000000 -11.771600 0.000000 0.000000 -52.848300 -3.081950 6.386620 -47.583300 0.000000 0.000000 85.477700 69.134500 0.000000 217.726000 0.000000 0.000000 50.547400 -9.951910 -0.037874 8.258220 1.258250 0.445574 8.487270 6.938850 0.071959 4.358840 -2.622060 -1.689260 -1.793330 1.192480 -0.201734 5.983020 0.000000 0.000000 0.000000 63.546400 -4.349340 -38.128400 0.000000 0.000000 34.810300 -24.139700 0.000000 -36.457800 0.000000 0.000000 7.125020 0.000000 0.000000 0.000000 -59.255300 -5.570010 -38.730300 0.000000 0.000000 38.546600 -45.281900 0.000000 -14.735100 0.000000 0.000000 7.125020
8.216450 15.764200 11.500700 173.002000 3.797620 -181.512000 -33.274400 -1.076400 -25.341900 0.000000 0.000000 36.394200 2.013190 0.000000 -11.808900 0.000000 0.000000 -52.970500 -2.295180 4.273160 -52.540800 0.000000 0.000000 86.661600 49.719100 0.000000 355.981000 0.000000 0.000000 41.406000 -11.337400 -0.783168 10.630400 1.251510 -0.560128 9.351930 7.793520 -0.419417 4.293600 -2.633670 -1.106040 -1.595330 1.016830 0.089074 5.639160 -0.000000 0.000000 0.000000 64.892900 -1.757250 -34.049500 0.000000 0.000000 36.730000 -24.378600 0.000000 -36.650300 0.000000 0.000000 7.125020 -0.000000 0.000000 0.000000 -58.626500 -6.893800 -42.152500 0.000000 0.000000 37.892000 -43.671400 0.000000 -14.366900 0.000000 0.000000 7.125020
8.212870 15.789900 11.488900 173.464000 3.284860 -181.754000 -33.003700 -1.776840 -24.766400 0.000000 0.000000 36.195500 2.635000 0.000000 -11.958000 0.000000 0.000000 -53.723800 -0.014459 2.615930 -57.704200 0.000000 0.000000 69.313300 -10.473800 0.000000 364.009000 0.000000 0.000000 16.392500 -11.355700 -1.374320 12.350600 1.480240 -1.363980 9.767620 8.138790 -0.765637 4.018830 -2.457480 -0.525326 -1.418820 0.783778 0.415083 5.367940 -0.000000 -0.000000 0.000000 66.287800 0.520309 -30.040600 0.000000 0.000000 39.067600 -23.090200 0.000000 -35.977300 0.000000 0.000000 7.125020 -0.000000 -0.000000 0.000000 -57.443200 -8.803680 -45.539700 0.000000 0.000000 36.787700 -42.462900 0.000000 -14.353700 0.000000 0.000000 7.125020
8.207300 15.838500 11.497700 175.069000 3.507790 -180.914000 -31.134400 -1.727970 -25.587700 0.000000 0.000000 36.084000 3.337160 0.000000 -11.966600 0.000000 0.000000 -54.257300 2.819460 2.905000 -61.379400 0.000000 0.000000 52.021100 -19.713200 0.000000 345.904000 0.000000 0.000000 -43.940900 -10.000400 -1.820540 13.427000 1.926960 -1.915550 9.787490 7.923070 -0.942365 3.499600 -2.430390 0.092681 -1.327110 0.655796 0.761431 5.119190 0.000000 -0.000000 0.000000 67.757900 2.237500 -26.304100 0.000000 0.000000 42.104100 -21.506500 0.000000 -36.222800 0.000000 0.000000 7.125020 0.000000 -0.000000 0.000000 -56.068900 -10.857600 -48.863100 0.000000 0.000000 35.831500 -43.065900 0.000000 -13.547000 0.000000 0.000000 7.125020
8.198010 15.894800 11.493500 176.376000 3.893630 -179.890000 -29.589800 -1.135870 -26.473200 0.000000 0.000000 35.785800 3.547090 0.000000 -11.883600 0.000000 0.000000 -54.177800 4.575660 4.076400 -64.575400 0.000000 0.000000 40.740200 -11.610400 0.000000 337.306000 0.000000 0.000000 0.432059 -8.718430 -2.217120 14.152100 2.218330 -2.356300 9.780880 7.569720 -1.078580 3.107250 -2.725810 0.679609 -1.314030 0.658636 1.068260 4.853220 -0.000000 0.000000 0.000000 69.223400 3.218340 -22.941200 0.000000 0.000000 46.066000 -23.138100 0.000000 -38.372000 0.000000 0.000000 7.125020 -0.000000 0.000000 0.000000 -54.610900 -12.623400 -52.157300 0.000000 0.000000 34.878800 -42.171400 0.000000 -13.784600 0.000000 0.000000 7.125020
8.198630 15.948300 11.455100 177.101000 3.498440 -179.464000 -28.872300 -0.831441 -26.605200 0.000000 0.000000 35.698700 3.179750 0.000000 -11.912500 0.000000 0.000000 -53.904600 4.179510 5.618880 -67.624000 0.000000 0.000000 29.228900 -8.355890 0.000000 350.464000 0.000000 0.000000 34.131800 -7.960300 -2.757990 14.972500 2.351860 -2.948900 10.004000 7.371180 -1.305590 2.979040 -3.143750 1.233240 -1.158350 0.820867 1.323560 4.793090 0.000000 -0.000000 0.000000 70.676400 3.267990 -20.050400 0.000000 0.000000 50.635000 -23.645400 0.000000 -39.337100 0.000000 0.000000 7.125020 0.000000 -0.000000 0.000000 -53.297400 -14.018100 -55.318000 0.000000 0.000000 34.150700 -40.844000 0.000000 -15.237900 0.000000 0.000000 7.125020
8.210120 15.978000 11.402000 177.476000 2.521010 -179.607000 -28.655900 -0.977426 -26.351600 0.000000 0.000000 36.117100 2.691180 0.000000 -12.143300 0.000000 0.000000 -53.677200 -0.024142 7.465910 -71.215200 0.000000 0.000000 22.644000 -9.122800 0.000000 351.617000 0.000000 0.000000 -0.293798 -7.508230 -3.357300 15.890100 2.378790 -3.578530 10.412100 7.248650 -1.550440 3.028910 -2.995160 1.571860 -1.404450 0.703225 1.489750 4.577910 0.000000 0.000000 0.000000 72.144700 2.599480 -17.327300 0.000000 0.000000 55.165200 -24.187800 0.000000 -38.789600 0.000000 0.000000 7.125020 0.000000 0.000000 0.000000 -52.124400 -15.333500 -58.295600 0.000000 0.000000 33.577200 -39.971300 0.000000 -15.288500 0.000000 0.000000 7.125020
